/* XPM */
static char * ea_xpm[] = {
"64 64 8 1",
" 	c None",
".	c #100BB4",
"+	c #EEEEF6",
"@	c #FFFFFF",
"#	c #F2F2F8",
"$	c #9594CE",
"%	c #ABABD6",
"&	c #7474C3",
"................................................................",
"................................................................",
"................................................................",
"................................................................",
"................................................................",
"................................................................",
"................................................................",
"................................................................",
"................................................................",
"................................................................",
"................................................................",
"................................................................",
"................................................................",
"................................................................",
"................................................................",
"................................................................",
"................................................................",
"................................................................",
".................+@@@@@@@@@@@@@#................................",
".................+@@@@@@@@@@@@@#................................",
".................+@@@@@@@@@@@@@#................................",
".................+@@$...........................................",
".................+@@$...........................................",
".................+@@$...........................................",
".................+@@$...........................................",
".................+@@$...........................................",
".................+@@$...........................................",
".................+@@@@@@@@@@@@@%................................",
".................+@@@@@@@@@@@@@%................................",
".................+@@@@@@@@@@@@@%................................",
".................+@@$...........................................",
".................+@@$...........................................",
".................+@@$...........................................",
".................+@@$...........................................",
".................+@@$...........................................",
".................+@@$...........................................",
".................+@@$...........................................",
".................+@@$...........................................",
".................+@@@@@@@@@@@@@@&...............................",
".................+@@@@@@@@@@@@@@&...............................",
".................+@@@@@@@@@@@@@@&...............................",
"................................................................",
"................................................................",
"................................................................",
"................................................................",
"................................................................",
"................................................................",
"................................................................",
"................................................................",
"................................................................",
"................................................................",
"................................................................",
"................................................................",
"................................................................",
"................................................................",
"................................................................",
"................................................................",
"................................................................",
"................................................................",
"..............................................................  ",
"............................................................    ",
"...........................................................     ",
"..........................................................      ",
".........................................................       "};
