/* XPM */
static char * NO_xpm[] = {
"64 64 98 2",
"  	c #000000",
". 	c #474747",
"+ 	c #FFFFFF",
"@ 	c #787878",
"# 	c #A5A5A5",
"$ 	c #BCBCBC",
"% 	c #6E6E6E",
"& 	c #BABABA",
"* 	c #E3E3E3",
"= 	c #F2F2F2",
"- 	c #FCFCFC",
"; 	c #F8F8F8",
"> 	c #EEEEEE",
", 	c #D6D6D6",
"' 	c #A6A6A6",
") 	c #3D3D3D",
"! 	c #DBDBDB",
"~ 	c #4D4D4D",
"{ 	c #CECECE",
"] 	c #FEFEFE",
"^ 	c #F4F4F4",
"/ 	c #A8A8A8",
"( 	c #868686",
"_ 	c #686868",
": 	c #CACACA",
"< 	c #1C1C1C",
"[ 	c #FBFBFB",
"} 	c #454545",
"| 	c #F0F0F0",
"1 	c #E5E5E5",
"2 	c #636363",
"3 	c #323232",
"4 	c #797979",
"5 	c #F6F6F6",
"6 	c #C2C2C2",
"7 	c #E9E9E9",
"8 	c #DCDCDC",
"9 	c #939393",
"0 	c #D4D4D4",
"a 	c #B2B2B2",
"b 	c #0D0D0D",
"c 	c #494949",
"d 	c #DFDFDF",
"e 	c #8D8D8D",
"f 	c #737373",
"g 	c #B5B5B5",
"h 	c #2E2E2E",
"i 	c #E4E4E4",
"j 	c #9F9F9F",
"k 	c #CCCCCC",
"l 	c #E8E8E8",
"m 	c #7E7E7E",
"n 	c #6A6A6A",
"o 	c #FDFDFD",
"p 	c #222222",
"q 	c #E1E1E1",
"r 	c #B8B8B8",
"s 	c #AAAAAA",
"t 	c #585858",
"u 	c #5C5C5C",
"v 	c #F3F3F3",
"w 	c #949494",
"x 	c #C4C4C4",
"y 	c #B4B4B4",
"z 	c #909090",
"A 	c #EDEDED",
"B 	c #828282",
"C 	c #F9F9F9",
"D 	c #424242",
"E 	c #BBBBBB",
"F 	c #BDBDBD",
"G 	c #FAFAFA",
"H 	c #515151",
"I 	c #5A5A5A",
"J 	c #B1B1B1",
"K 	c #C6C6C6",
"L 	c #F1F1F1",
"M 	c #A4A4A4",
"N 	c #606060",
"O 	c #CDCDCD",
"P 	c #A7A7A7",
"Q 	c #767676",
"R 	c #B3B3B3",
"S 	c #2A2A2A",
"T 	c #C1C1C1",
"U 	c #AFAFAF",
"V 	c #DEDEDE",
"W 	c #8F8F8F",
"X 	c #9B9B9B",
"Y 	c #A3A3A3",
"Z 	c #626262",
"` 	c #B9B9B9",
" .	c #E7E7E7",
"..	c #EFEFEF",
"+.	c #D0D0D0",
"@.	c #F5F5F5",
"#.	c #E0E0E0",
"$.	c #707070",
"                                                                                                                                ",
"                                                                                                                                ",
"                                                                                                                                ",
"                                                                                                                                ",
"                                                                                                                                ",
"                                                                                                                                ",
"                                                                                                                                ",
"                                                                                                                                ",
"                                                                                                                                ",
"                                                                                                                                ",
"                                                                                                                                ",
"                                                                                                                                ",
"                                                                                                                                ",
"                                                                                                                                ",
"                                                                                                                                ",
"                                                                                                                                ",
"                                                                                                                                ",
"                                                                                                                                ",
"                                                                                                                                ",
"                                                                                                                                ",
"                                                                                                                                ",
"                                                                                                                                ",
"                                                                                                                                ",
"                        . + + + + @                 # + + $                   % & * = - ; > , ' )                               ",
"                        . + + + + !                 # + + $               ~ { ] + + + + + + + + ^ /                             ",
"                        . + + + + + (               # + + $             _ > + + + + + + + + + + + + : <                         ",
"                        . + + [ + + *               # + + $           } | + + + 1 # 2 3 } 4 & 5 + + + 6                         ",
"                        . + + 7 8 + + 9             # + + $           0 + + + a b             c d + + + e                       ",
"                        . + + 7 @ + + 7 b           # + + $         f + + + g                   h 7 + + i                       ",
"                        . + + 7   0 + + j           # + + $         k + + l b                     4 + + + m                     ",
"                        . + + 7   n o + > p         # + + $         | + + #                         q + + r                     ",
"                        . + + 7     k + + s         # + + $       t + + + t                         r + + !                     ",
"                        . + + 7     u [ + v 3       # + + $       m + + 5                           w + + 7                     ",
"                        . + + 7       x + + y       # + + $       z + + A                           B + + =                     ",
"                        . + + 7       ~ C + 5 D     # + + $       z + + A                           B + + =                     ",
"                        . + + 7         E + + F     # + + $       m + + 5                           w + + 7                     ",
"                        . + + 7         ) 5 + G H   # + + $       I + + + t                         r + + !                     ",
"                        . + + 7           J + + K   # + + $         L + + M                         q + + r                     ",
"                        . + + 7           h L + - N # + + $         O + + l b                     @ + + + m                     ",
"                        . + + 7             P + + { # + + $         Q + + + R                   S l + + 1                       ",
"                        . + + 7             < A + ] T + + $           , + + ] U               } V + + + W                       ",
"                        . + + 7               X + + G + + $           c L + + + i Y Z h D @ ` 5 + + + x                         ",
"                        . + + 7               b  .+ + + + $             n ..+ + + + + + + + + + + + k p                         ",
"                        . + + 7                 W + + + + $               H +.] + + + + + + + + @.s                             ",
"                        . + + 7                   #.+ + + $                   $.E * v - C .., P )                               ",
"                                                                                                                                ",
"                                                                                                                                ",
"                                                                                                                                ",
"                                                                                                                                ",
"                                                                                                                                ",
"                                                                                                                                ",
"                                                                                                                                ",
"                                                                                                                                ",
"                                                                                                                                ",
"                                                                                                                                ",
"                                                                                                                                ",
"                                                                                                                                ",
"                                                                                                                                ",
"                                                                                                                                ",
"                                                                                                                                ",
"                                                                                                                                ",
"                                                                                                                                ",
"                                                                                                                                ",
"                                                                                                                                "};
