/* XPM */
static char * player_xpm[] = {
"16 16 170 2",
"  	c #FFFFFF",
". 	c #FDFCFC",
"+ 	c #ECE2DF",
"@ 	c #BD9188",
"# 	c #7F4F45",
"$ 	c #9A756B",
"% 	c #D0BDB9",
"& 	c #EDE9E8",
"* 	c #FEFEFE",
"= 	c #F8F5F4",
"- 	c #C4ABA4",
"; 	c #C48677",
"> 	c #A15F4E",
", 	c #340909",
"' 	c #411816",
") 	c #451D19",
"! 	c #62403E",
"~ 	c #C5BDBC",
"{ 	c #DFBAB1",
"] 	c #BF8477",
"^ 	c #B96F5F",
"/ 	c #6E251D",
"( 	c #481010",
"_ 	c #4F1314",
": 	c #541312",
"< 	c #4B0F0E",
"[ 	c #4E2D2D",
"} 	c #C5C1C1",
"| 	c #E9DEDC",
"1 	c #B87D6D",
"2 	c #B46B5C",
"3 	c #A04030",
"4 	c #601512",
"5 	c #61211E",
"6 	c #6C2E2B",
"7 	c #70322D",
"8 	c #5F1E1B",
"9 	c #4F0D0C",
"0 	c #6E5F5F",
"a 	c #F9F8F8",
"b 	c #E0D1CD",
"c 	c #DAB8A8",
"d 	c #D0B2A4",
"e 	c #B98370",
"f 	c #8D564F",
"g 	c #905C57",
"h 	c #915D59",
"i 	c #945B55",
"j 	c #864841",
"k 	c #55130F",
"l 	c #5D3C3C",
"m 	c #ECEBEB",
"n 	c #E6D0C8",
"o 	c #E0B5A5",
"p 	c #C5A194",
"q 	c #98726A",
"r 	c #816461",
"s 	c #90635E",
"t 	c #935E57",
"u 	c #985A4D",
"v 	c #8C483C",
"w 	c #57120D",
"x 	c #4E1A19",
"y 	c #C9C6C6",
"z 	c #FEFEFD",
"A 	c #E3CCC3",
"B 	c #DBB4A8",
"C 	c #CCB1A6",
"D 	c #8F6964",
"E 	c #977773",
"F 	c #996B68",
"G 	c #97635F",
"H 	c #8C5149",
"I 	c #894237",
"J 	c #57130D",
"K 	c #4B0D0D",
"L 	c #CAC8C8",
"M 	c #FDFBFA",
"N 	c #E9D7CE",
"O 	c #B68B7B",
"P 	c #73463C",
"Q 	c #84524A",
"R 	c #8D5C54",
"S 	c #6F4039",
"T 	c #62332B",
"U 	c #783D33",
"V 	c #8A4A40",
"W 	c #55231F",
"X 	c #60241C",
"Y 	c #BBB8B8",
"Z 	c #FEFDFD",
"` 	c #E2C9BF",
" .	c #A89082",
"..	c #4F3A36",
"+.	c #62504B",
"@.	c #4C3837",
"#.	c #291516",
"$.	c #422A27",
"%.	c #3E2726",
"&.	c #583A37",
"*.	c #563430",
"=.	c #672C23",
"-.	c #C2BEBE",
";.	c #DEC5BD",
">.	c #C1A899",
",.	c #6E5954",
"'.	c #B4958D",
").	c #885753",
"!.	c #5E4040",
"~.	c #574142",
"{.	c #6B4945",
"].	c #884B3F",
"^.	c #6C2C22",
"/.	c #865F5B",
"(.	c #EFEEEE",
"_.	c #F2E7E2",
":.	c #C38B75",
"<.	c #9C6C5B",
"[.	c #C19489",
"}.	c #8C4E4A",
"|.	c #7C3F36",
"1.	c #935347",
"2.	c #975042",
"3.	c #80372A",
"4.	c #66221B",
"5.	c #C6BCBB",
"6.	c #FDFCFB",
"7.	c #BD8E80",
"8.	c #A8604D",
"9.	c #742C21",
"0.	c #571916",
"a.	c #662A23",
"b.	c #7F3D33",
"c.	c #833C31",
"d.	c #5E1D13",
"e.	c #601F18",
"f.	c #D8D2D1",
"g.	c #FFFEFE",
"h.	c #D8ABA0",
"i.	c #7C2918",
"j.	c #5E2D29",
"k.	c #5E2D2B",
"l.	c #602824",
"m.	c #55160F",
"n.	c #63251D",
"o.	c #4A100B",
"p.	c #745756",
"q.	c #EEEDED",
"r.	c #DAC4BC",
"s.	c #5F261E",
"t.	c #54211B",
"u.	c #57241F",
"v.	c #53251E",
"w.	c #45120C",
"x.	c #471C1A",
"y.	c #8A8383",
"z.	c #E7E7E7",
"A.	c #FCFCFC",
"B.	c #BCB3B2",
"C.	c #7F291A",
"D.	c #551A15",
"E.	c #4F160F",
"F.	c #441915",
"G.	c #ACA9A9",
"H.	c #F8F8F8",
"I.	c #B6A7A6",
"J.	c #553634",
"K.	c #604E4D",
"L.	c #AAA8A8",
"M.	c #F9F9F9",
"        . + @ # $ % & *         ",
"      = - ; > , ' ) ! ~ *       ",
"    . { ] ^ / ( _ : < [ }       ",
"    | 1 2 3 4 5 6 7 8 9 0 a     ",
"    b c d e f g h i j k l m     ",
"    n o p q r s t u v w x y     ",
"  z A B C D E F G H I J K L     ",
"  M N O P Q R S T U V W X Y     ",
"  Z `  ...+.@.#.$.%.&.*.=.-.    ",
"    ;.>.,.'.).!.~.{.].^./.(.    ",
"    _.:.<.[.}.|.1.2.3.4.5.*     ",
"    6.7.8.9.0.a.b.c.d.e.f.      ",
"    g.h.i.j.k.l.m.n.o.p.q.      ",
"      r.s.t.u.v.w.x.y.z.        ",
"      A.B.C.D.E.F.G.H.          ",
"        a I.J.K.L.M.            "};
