/* XPM */
static char * wall_xpm[] = {
"16 16 208 2",
"  	c #A2A2A1",
". 	c #939393",
"+ 	c #98999B",
"@ 	c #878889",
"# 	c #939596",
"$ 	c #8F8F90",
"% 	c #989996",
"& 	c #989997",
"* 	c #919292",
"= 	c #8D8E8F",
"- 	c #8E8E8E",
"; 	c #7C7D7C",
"> 	c #898989",
", 	c #969696",
"' 	c #999A9C",
") 	c #A6A6A4",
"! 	c #919291",
"~ 	c #8E8E8F",
"{ 	c #9C9D9E",
"] 	c #919293",
"^ 	c #9D9D9D",
"/ 	c #A1A19F",
"( 	c #BFC0BC",
"_ 	c #A8A9A6",
": 	c #9F9FA0",
"< 	c #949495",
"[ 	c #969593",
"} 	c #999997",
"| 	c #858585",
"1 	c #949493",
"2 	c #9A9A9B",
"3 	c #9A9A9A",
"4 	c #9A9B9C",
"5 	c #8F8F91",
"6 	c #9B9B9C",
"7 	c #A2A2A3",
"8 	c #A2A2A0",
"9 	c #939493",
"0 	c #8F8F8F",
"a 	c #979795",
"b 	c #8A8A8A",
"c 	c #95948F",
"d 	c #969591",
"e 	c #7C7C7C",
"f 	c #A1A2A2",
"g 	c #99999A",
"h 	c #999999",
"i 	c #A9AAAB",
"j 	c #969798",
"k 	c #9E9F9F",
"l 	c #B1B1AF",
"m 	c #B5B6B4",
"n 	c #A6A6A6",
"o 	c #A8A9A8",
"p 	c #868686",
"q 	c #929293",
"r 	c #979796",
"s 	c #A4A4A3",
"t 	c #888887",
"u 	c #A3A4A4",
"v 	c #888889",
"w 	c #8E8F90",
"x 	c #989897",
"y 	c #878786",
"z 	c #7B7B79",
"A 	c #A0A0A0",
"B 	c #7B7B7B",
"C 	c #787978",
"D 	c #90908F",
"E 	c #8D8D8C",
"F 	c #A1A2A3",
"G 	c #929393",
"H 	c #959695",
"I 	c #98999A",
"J 	c #8B8B8B",
"K 	c #8B8B8A",
"L 	c #797979",
"M 	c #787877",
"N 	c #757574",
"O 	c #9E9F9E",
"P 	c #7D7D7D",
"Q 	c #858583",
"R 	c #777876",
"S 	c #ADAEAE",
"T 	c #A09F9D",
"U 	c #8D8D8D",
"V 	c #8E8F8E",
"W 	c #797978",
"X 	c #727372",
"Y 	c #878785",
"Z 	c #858684",
"` 	c #838382",
" .	c #878887",
"..	c #818180",
"+.	c #939392",
"@.	c #969695",
"#.	c #9F9F9F",
"$.	c #989998",
"%.	c #9E9E9E",
"&.	c #9B9B9A",
"*.	c #9B9A96",
"=.	c #A4A19C",
"-.	c #918F8A",
";.	c #929290",
">.	c #989895",
",.	c #8D8D8B",
"'.	c #757573",
").	c #656563",
"!.	c #848483",
"~.	c #959594",
"{.	c #AAAAA8",
"].	c #9B9C9A",
"^.	c #959694",
"/.	c #9E9E9C",
"(.	c #9C9B99",
"_.	c #A0A09E",
":.	c #A2A09C",
"<.	c #AEAAA5",
"[.	c #9D9B96",
"}.	c #7D7D7B",
"|.	c #8D8D8A",
"1.	c #858582",
"2.	c #737371",
"3.	c #747472",
"4.	c #BCBCB8",
"5.	c #B6B5B0",
"6.	c #A3A39E",
"7.	c #ACACA9",
"8.	c #B6B4B0",
"9.	c #BABAB6",
"0.	c #A4A29D",
"a.	c #979590",
"b.	c #939390",
"c.	c #8B8B88",
"d.	c #979895",
"e.	c #B5B5B3",
"f.	c #828280",
"g.	c #878784",
"h.	c #949490",
"i.	c #B7B7B5",
"j.	c #A4A5A2",
"k.	c #9E9F9C",
"l.	c #90908E",
"m.	c #969692",
"n.	c #A2A19C",
"o.	c #B4B2AD",
"p.	c #B3B1AC",
"q.	c #9F9D98",
"r.	c #9D9E99",
"s.	c #888985",
"t.	c #9D9E9A",
"u.	c #A3A4A1",
"v.	c #878885",
"w.	c #969793",
"x.	c #A0A09B",
"y.	c #A8A8A6",
"z.	c #9A9B9B",
"A.	c #929392",
"B.	c #9D9E9C",
"C.	c #898988",
"D.	c #8E8E8D",
"E.	c #838381",
"F.	c #80807E",
"G.	c #868684",
"H.	c #7F7F7D",
"I.	c #878886",
"J.	c #A0A2A3",
"K.	c #9C9D9D",
"L.	c #969797",
"M.	c #959696",
"N.	c #898A8A",
"O.	c #868786",
"P.	c #A7A7A6",
"Q.	c #A3A3A2",
"R.	c #A0A1A0",
"S.	c #9FA0A1",
"T.	c #9D9E9E",
"U.	c #AAAAAA",
"V.	c #ACACAC",
"W.	c #9B9B98",
"X.	c #A2A3A0",
"Y.	c #B2B2B0",
"Z.	c #969693",
"`.	c #B0B1B2",
" +	c #AAABAC",
".+	c #BFBFBF",
"++	c #BFBFBE",
"@+	c #A7A8A5",
"#+	c #AAAAA9",
"$+	c #959595",
"%+	c #999897",
"&+	c #9A9996",
"*+	c #959592",
"=+	c #919190",
"-+	c #999A99",
";+	c #ABABAA",
">+	c #939391",
",+	c #A3A4A6",
"'+	c #9E9E9F",
")+	c #AFB0AF",
"!+	c #A3A3A1",
"~+	c #969799",
"{+	c #8A8A8B",
"]+	c #909090",
"^+	c #929391",
"/+	c #9C9C9B",
"(+	c #989898",
"_+	c #9B9C9D",
"  . + @ # $ % & * = - * ; > , ' ",
") ! $ ~ { ] ^ / ( _   : < [ } | ",
"1 2 3 4 5 6 7 8 9 0 a | b c d e ",
"f g h i j k l m } n o p q r s t ",
"u q . v w q x . y z A . B C D E ",
"F G H I I J K L M N O 9 p P Q R ",
"S T a 0 U t V W M X Y Z `  ...Z ",
"+.@.#.$.%.&.@.*.=.-.;.>.,.'.).!.",
"~.{.].^./.(._.:.<.[.}.|.} 1.2.3.",
"r 4.5.6.7.8.9.0.a.b.c.d.e.f.g.h.",
"i.j.k.l.m.n.o.p.q.r.s.t.u.v.w.x.",
"y.9 z.A.B.1 C.D.D.D.E.e F.G.H.I.",
"- J.J.K.L.b M.z.#.D N.O.P.Q.R.1 ",
"B S.T.. @.U.V.} } W.X.+.h P.Y.Z.",
"`. +.+++@+#+$+%+&+*+=+E -+;+>+;.",
",++ '+)+!+{.q ~+{+]++.^+;+/+(+_+"};
