/* XPM */
static char * we_xpm[] = {
"64 64 120 2",
"  	c None",
". 	c #193809",
"+ 	c #A8B6A1",
"@ 	c #DDECD6",
"# 	c #899785",
"$ 	c #C2CFBB",
"% 	c #D3E1CC",
"& 	c #677662",
"* 	c #BCCAB6",
"= 	c #7E8B78",
"- 	c #B1BFAA",
"; 	c #2F4429",
"> 	c #D9E8D2",
", 	c #64725C",
"' 	c #98A792",
") 	c #9AA895",
"! 	c #3B4C30",
"~ 	c #DBE9D4",
"{ 	c #CFDDC8",
"] 	c #788572",
"^ 	c #97A491",
"/ 	c #BBCAB5",
"( 	c #6B7764",
"_ 	c #C5D2BE",
": 	c #53644C",
"< 	c #A3B09D",
"[ 	c #DBE9D5",
"} 	c #D0DFC9",
"| 	c #B9C7B3",
"1 	c #243D1A",
"2 	c #D5E4D0",
"3 	c #D5E4CE",
"4 	c #A5B29E",
"5 	c #8D9C89",
"6 	c #C3D2BD",
"7 	c #C5D3BE",
"8 	c #AEBDA9",
"9 	c #D6E3CE",
"0 	c #1F3B13",
"a 	c #6B7A66",
"b 	c #BBC8B4",
"c 	c #798873",
"d 	c #B4C1AD",
"e 	c #354830",
"f 	c #DBE9D3",
"g 	c #A4B3A0",
"h 	c #899782",
"i 	c #697662",
"j 	c #9CA896",
"k 	c #97A591",
"l 	c #33462D",
"m 	c #D9E9D2",
"n 	c #D0DFCA",
"o 	c #7C8A75",
"p 	c #495A45",
"q 	c #DCEBD5",
"r 	c #BDCCB6",
"s 	c #667561",
"t 	c #C2D2BC",
"u 	c #596957",
"v 	c #A5B3A0",
"w 	c #CAD8C3",
"x 	c #284020",
"y 	c #D7E5D0",
"z 	c #D4E3CC",
"A 	c #A2B19D",
"B 	c #92A08C",
"C 	c #C6D3BE",
"D 	c #C3D0BB",
"E 	c #ADBAA6",
"F 	c #D7E5CF",
"G 	c #707E69",
"H 	c #B8C6B3",
"I 	c #778471",
"J 	c #B6C5AF",
"K 	c #394E33",
"L 	c #A1AF9C",
"M 	c #84927F",
"N 	c #6F7D68",
"O 	c #9FAC99",
"P 	c #94A28F",
"Q 	c #2C4725",
"R 	c #D1E1CB",
"S 	c #7F8E79",
"T 	c #75846E",
"U 	c #43553A",
"V 	c #DBEAD4",
"W 	c #9DAB98",
"X 	c #BFCDB9",
"Y 	c #61705C",
"Z 	c #C0CEBA",
"` 	c #63715D",
" .	c #A9B7A3",
"..	c #D8E7D1",
"+.	c #284420",
"@.	c #C9D7C1",
"#.	c #BECDB7",
"$.	c #A0AE99",
"%.	c #96A390",
"&.	c #C7D6C1",
"*.	c #A9B8A2",
"=.	c #788774",
"-.	c #71816D",
";.	c #C0CEB9",
">.	c #808D7A",
",.	c #24421B",
"'.	c #D7E6D1",
").	c #3B5036",
"!.	c #5B6B55",
"~.	c #C6D4BF",
"{.	c #D1DFCA",
"].	c #9DAB97",
"^.	c #A6B4A0",
"/.	c #B5C2AE",
"(.	c #99A893",
"_.	c #7C8A77",
":.	c #8F9E8B",
"<.	c #183808",
"[.	c #193708",
"}.	c #193709",
". . . . . . . . . . . . . . . . . . . . . . . . . . . . . . . . . . . . . . . . . . . . . . . . . . . . . . . . . . . . . . . . ",
". . . . . . . . . . . . . . . . . . . . . . . . . . . . . . . . . . . . . . . . . . . . . . . . . . . . . . . . . . . . . . . . ",
". . . . . . . . . . . . . . . . . . . . . . . . . . . . . . . . . . . . . . . . . . . . . . . . . . . . . . . . . . . . . . . . ",
". . . . . . . . . . . . . . . . . . . . . . . . . . . . . . . . . . . . . . . . . . . . . . . . . . . . . . . . . . . . . . . . ",
". . . . . . . . . . . . . . . . . . . . . . . . . . . . . . . . . . . . . . . . . . . . . . . . . . . . . . . . . . . . . . . . ",
". . . . . . . . . . . . . . . . . . . . . . . . . . . . . . . . . . . . . . . . . . . . . . . . . . . . . . . . . . . . . . . . ",
". . . . . . . . . . . . . . . . . . . . . . . . . . . . . . . . . . . . . . . . . . . . . . . . . . . . . . . . . . . . . . . . ",
". . . . . . . . . . . . . . . . . . . . . . . . . . . . . . . . . . . . . . . . . . . . . . . . . . . . . . . . . . . . . . . . ",
". . . . . . . . . . . . . . . . . . . . . . . . . . . . . . . . . . . . . . . . . . . . . . . . . . . . . . . . . . . . . . . . ",
". . . . . . . . . . . . . . . . . . . . . . . . . . . . . . . . . . . . . . . . . . . . . . . . . . . . . . . . . . . . . . . . ",
". . . . . . . . . . . . . . . . . . . . . . . . . . . . . . . . . . . . . . . . . . . . . . . . . . . . . . . . . . . . . . . . ",
". . . . . . . . . . . . . . . . . . . . . . . . . . . . . . . . . . . . . . . . . . . . . . . . . . . . . . . . . . . . . . . . ",
". . . . . . . . . . . . . . . . . . . . . . . . . . . . . . . . . . . . . . . . . . . . . . . . . . . . . . . . . . . . . . . . ",
". . . . . . . . . . . . . . . . . . . . . . . . . . . . . . . . . . . . . . . . . . . . . . . . . . . . . . . . . . . . . . . . ",
". . . . . . . . . . . . . . . . . . . . . . . . . . . . . . . . . . . . . . . . . . . . . . . . . . . . . . . . . . . . . . . . ",
". . . . . . . . . . . . . . . . . . . . . . . . . . . . . . . . . . . . . . . . . . . . . . . . . . . . . . . . . . . . . . . . ",
". . . . . . . . . . . . . . . . . . . . . . . . . . . . . . . . . . . . . . . . . . . . . . . . . . . . . . . . . . . . . . . . ",
". . . . . . . . . . . . . . . . . . . . . . . . . . . . . . . . . . . . . . . . . . . . . . . . . . . . . . . . . . . . . . . . ",
". . . . . . . . . . . . . . . . . . . . . . . . . . . . . . . . . . . . . . . . . . . . . . . . . . . . . . . . . . . . . . . . ",
". . . . . . . . . . . . . . . . . . . . . . . . . . . . . . . . . . . . . . . . . . . . . . . . . . . . . . . . . . . . . . . . ",
". . . . . . . . . . . . . . . . . . . . . . . . . . . . . . . . . . . . . . . . . . . . . . . . . . . . . . . . . . . . . . . . ",
". . . . . . . . . . . . . . . . . . . . . . . . . . . . . . . . . . . . . . . . . . . . . . . . . . . . . . . . . . . . . . . . ",
". . . . . . . . . . . . . . . . . . . . . . . . . . . . . . . . . . . . . . . . . . . . . . . . . . . . . . . . . . . . . . . . ",
". . . . . . . . . . . . . . . . . + @ @ # . . . . . . $ @ @ % . . . . . . & @ @ * . . . . . . . . . . . . . . . . . . . . . . . ",
". . . . . . . . . . . . . . . . . = @ @ - . . . . . ; > @ @ @ , . . . . . ' @ @ ) . . . . . . . . . . . . . . . . . . . . . . . ",
". . . . . . . . . . . . . . . . . ! ~ @ { . . . . . ] @ @ @ @ ^ . . . . . / @ @ ( . . . . . . . . . . . . . . . . . . . . . . . ",
". . . . . . . . . . . . . . . . . . _ @ @ : . . . . < @ [ } @ | . . . . 1 2 @ 3 1 . . . . . . . . . . . . . . . . . . . . . . . ",
". . . . . . . . . . . . . . . . . . 4 @ @ 5 . . . . 6 @ 7 8 @ 9 0 . . . a @ @ b . . . . . . . . . . . . . . . . . . . . . . . . ",
". . . . . . . . . . . . . . . . . . c @ @ d . . . e f @ g h @ @ i . . . j @ @ k . . . . . . . . . . . . . . . . . . . . . . . . ",
". . . . . . . . . . . . . . . . . . l m @ n . . . o @ @ c p q @ ) . . . r @ @ s . . . . . . . . . . . . . . . . . . . . . . . . ",
". . . . . . . . . . . . . . . . . . . t @ @ u . . v @ m l . w @ * . . x y @ z 0 . . . . . . . . . . . . . . . . . . . . . . . . ",
". . . . . . . . . . . . . . . . . . . A @ @ B . . C @ D . . E @ F x . G @ @ H . . . . . . . . . . . . . . . . . . . . . . . . . ",
". . . . . . . . . . . . . . . . . . . I @ @ J . K [ @ L . . M @ @ N . O @ @ P . . . . . . . . . . . . . . . . . . . . . . . . . ",
". . . . . . . . . . . . . . . . . . . Q > @ R . S @ @ T . . U V @ W . X @ @ Y . . . . . . . . . . . . . . . . . . . . . . . . . ",
". . . . . . . . . . . . . . . . . . . . Z @ @ `  .@ ..+.. . . @.@ #.+...@ R . . . . . . . . . . . . . . . . . . . . . . . . . . ",
". . . . . . . . . . . . . . . . . . . . $.@ @ %.&.@ #.. . . . *.@ ..=.@ @ J . . . . . . . . . . . . . . . . . . . . . . . . . . ",
". . . . . . . . . . . . . . . . . . . . -.@ @ ;.V @ W . . . . >.@ @ #.@ @ B . . . . . . . . . . . . . . . . . . . . . . . . . . ",
". . . . . . . . . . . . . . . . . . . . ,.'.@ @ @ @ N . . . . ).[ @ @ @ @ !.. . . . . . . . . . . . . . . . . . . . . . . . . . ",
". . . . . . . . . . . . . . . . . . . . . X @ @ @ F x . . . . . ~.@ @ @ {.. . . . . . . . . . . . . . . . . . . . . . . . . . . ",
". . . . . . . . . . . . . . . . . . . . . ].@ @ @ * . . . . . . ^.@ @ @ /.. . . . . . . . . . . . . . . . . . . . . . . . . . . ",
". . . . . . . . . . . . . . . . . . . . . N @ @ @ (.. . . . . . _.@ @ @ :.. . . . . . . . . . . . . . . . . . . . . . . . . . . ",
". . . . . . . . . . . . . . . . . . . . . . . . . . . . . . . . . . . . . . . . . . . . . . . . . . . . . . . . . . . . . . . . ",
". . . . . . . . . . . . . . . . . . . . . . . . . . . . . . . . . . . . . . . . . . . . . . . . . . . . . . . . . . . . . . . . ",
". . . . . . . . . . . . . . . . . . . . . . . . . . . . . . . . . . . . . . . . . . . . . . . . . . . . . . . . . . . . . . . . ",
". . . . . . . . . . . . . . . . . . . . . . . . . . . . . . . . . . . . . . . . . . . . . . . . . . . . . . . . . . . . . . . . ",
". . . . . . . . . . . . . . . . . . . . . . . . . . . . . . . . . . . . . . . . . . . . . . . . . . . . . . . . . . . . . . . . ",
". . . . . . . . . . . . . . . . . . . . . . . . . . . . . . . . . . . . . . . . . . . . . . . . . . . . . . . . . . . . . . . . ",
". . . . . . . . . . . . . . . . . . . . . . . . . . . . . . . . . . . . . . . . . . . . . . . . . . . . . . . . . . . . . . . . ",
". . . . . . . . . . . . . . . . . . . . . . . . . . . . . . . . . . . . . . . . . . . . . . . . . . . . . . . . . . . . . . . . ",
". . . . . . . . . . . . . . . . . . . . . . . . . . . . . . . . . . . . . . . . . . . . . . . . . . . . . . . . . . . . . . . . ",
". . . . . . . . . . . . . . . . . . . . . . . . . . . . . . . . . . . . . . . . . . . . . . . . . . . . . . . . . . . . . . . . ",
". . . . . . . . . . . . . . . . . . . . . . . . . . . . . . . . . . . . . . . . . . . . . . . . . . . . . . . . . . . . . . . . ",
". . . . . . . . . . . . . . . . . . . . . . . . . . . . . . . . . . . . . . . . . . . . . . . . . . . . . . . . . . . . . . . . ",
". . . . . . . . . . . . . . . . . . . . . . . . . . . . . . . . . . . . . . . . . . . . . . . . . . . . . . . . . . . . . . . . ",
". . . . . . . . . . . . . . . . . . . . . . . . . . . . . . . . . . . . . . . . . . . . . . . . . . . . . . . . . . . . . . . . ",
". . . . . . . . . . . . . . . . . . . . . . . . . . . . . . . . . . . . . . . . . . . . . . . . . . . . . . . . . . . . . . . . ",
". . . . . . . . . . . . . . . . . <.. . . . . . . . . . . . . . . [.. . . . . . . . . . . . . . . . . }.. . . . . . . . . . . . ",
". . . . . . . . . . . . . . . . . . . . . . . . . . . . . . . . . . . . . . . . . . . . . . . . . . . . . . . . . . . . . . . . ",
". . . . . . . . . . . . . . . . . . . . . . . . . . . . . . . . . . . . . . . . . . . . . . . . . . . . . . . . . . . . . . . . ",
". . . . . . . . . . . . . . . . . . . . . . . . . . . . . . . . . . . . . . . . . . . . . . . . . . . . . . . . . . . . . . . . ",
"    . . . . . . . . . . . . . . . . . . . . . . . . . . . . . . . . . . . . . . . . . . . . . . . . . . . . . . . . . . . . . . ",
"        . . . . . . . . . . . . . . . . . . . . . . . . . . . . . . . . . . . . . . . . . . . . . . . . . . . . . . . . . . .   ",
"              . . . . . . . . . . . . . . . . . . . . . . . . . . . . . . . . . . . . . . . . . . . . . . . . . . . . . . .     ",
"                          . . . . . . . . . . . . . . . . . . . . . . . . . . . . . . . . . . . . . . . . . . . . . . . .       "};
