/* XPM */
static char * so_xpm[] = {
"64 64 122 2",
"  	c None",
". 	c #F80808",
"+ 	c #AA0303",
"@ 	c #780202",
"# 	c #490101",
"$ 	c #200000",
"% 	c #470101",
"& 	c #670101",
"* 	c #7F0202",
"= 	c #A70303",
"- 	c #CC0505",
"; 	c #EA0707",
"> 	c #E60707",
", 	c #B80404",
"' 	c #810202",
") 	c #5A0101",
"! 	c #2D0000",
"~ 	c #420000",
"{ 	c #970303",
"] 	c #C90505",
"^ 	c #F30808",
"/ 	c #9C0303",
"( 	c #000000",
"_ 	c #F10707",
": 	c #F00707",
"< 	c #A10303",
"[ 	c #150000",
"} 	c #540101",
"| 	c #C70505",
"1 	c #F60808",
"2 	c #820202",
"3 	c #E80707",
"4 	c #F70808",
"5 	c #C30505",
"6 	c #890202",
"7 	c #D10505",
"8 	c #EC0707",
"9 	c #F50808",
"0 	c #E90707",
"a 	c #DE0606",
"b 	c #C60505",
"c 	c #9E0303",
"d 	c #600101",
"e 	c #F10808",
"f 	c #7C0202",
"g 	c #E20606",
"h 	c #4B0101",
"i 	c #AF0404",
"j 	c #7B0202",
"k 	c #A90303",
"l 	c #9A0303",
"m 	c #0C0000",
"n 	c #BF0404",
"o 	c #870202",
"p 	c #D80606",
"q 	c #390000",
"r 	c #E40707",
"s 	c #BC0404",
"t 	c #750202",
"u 	c #7E0202",
"v 	c #1B0000",
"w 	c #A40303",
"x 	c #760202",
"y 	c #E00606",
"z 	c #D40606",
"A 	c #840202",
"B 	c #BA0404",
"C 	c #AB0303",
"D 	c #C40505",
"E 	c #ED0707",
"F 	c #8E0202",
"G 	c #EE0707",
"H 	c #590101",
"I 	c #700101",
"J 	c #A00303",
"K 	c #C20505",
"L 	c #4F0101",
"M 	c #D50606",
"N 	c #730101",
"O 	c #800202",
"P 	c #A30303",
"Q 	c #E70707",
"R 	c #D70606",
"S 	c #6A0101",
"T 	c #5C0101",
"U 	c #D90606",
"V 	c #9F0303",
"W 	c #560101",
"X 	c #B30404",
"Y 	c #CA0505",
"Z 	c #790202",
"` 	c #520101",
" .	c #360000",
"..	c #5F0101",
"+.	c #7D0202",
"@.	c #CE0505",
"#.	c #770202",
"$.	c #D20606",
"%.	c #E30707",
"&.	c #BE0404",
"*.	c #C10505",
"=.	c #8A0202",
"-.	c #6B0101",
";.	c #920202",
">.	c #B90404",
",.	c #F40808",
"'.	c #9B0303",
").	c #F20808",
"!.	c #4D0101",
"~.	c #AD0404",
"{.	c #650101",
"].	c #EF0707",
"^.	c #500101",
"/.	c #C50505",
"(.	c #B50404",
"_.	c #8F0202",
":.	c #330000",
"<.	c #250000",
"[.	c #B70404",
"}.	c #400000",
"|.	c #960303",
"1.	c #C80505",
". . . . . . . . . . . . . . . . . . . . . . . . . . . . . . . . . . . . . . . . . . . . . . . . . . . . . . . . . . . . . . . . ",
". . . . . . . . . . . . . . . . . . . . . . . . . . . . . . . . . . . . . . . . . . . . . . . . . . . . . . . . . . . . . . . . ",
". . . . . . . . . . . . . . . . . . . . . . . . . . . . . . . . . . . . . . . . . . . . . . . . . . . . . . . . . . . . . . . . ",
". . . . . . . . . . . . . . . . . . . . . . . . . . . . . . . . . . . . . . . . . . . . . . . . . . . . . . . . . . . . . . . . ",
". . . . . . . . . . . . . . . . . . . . . . . . . . . . . . . . . . . . . . . . . . . . . . . . . . . . . . . . . . . . . . . . ",
". . . . . . . . . . . . . . . . . . . . . . . . . . . . . . . . . . . . . . . . . . . . . . . . . . . . . . . . . . . . . . . . ",
". . . . . . . . . . . . . . . . . . . . . . . . . . . . . . . . . . . . . . . . . . . . . . . . . . . . . . . . . . . . . . . . ",
". . . . . . . . . . . . . . . . . . . . . . . . . . . . . . . . . . . . . . . . . . . . . . . . . . . . . . . . . . . . . . . . ",
". . . . . . . . . . . . . . . . . . . . . . . . . . . . . . . . . . . . . . . . . . . . . . . . . . . . . . . . . . . . . . . . ",
". . . . . . . . . . . . . . . . . . . . . . . . . . . . . . . . . . . . . . . . . . . . . . . . . . . . . . . . . . . . . . . . ",
". . . . . . . . . . . . . . . . . . . . . . . . . . . . . . . . . . . . . . . . . . . . . . . . . . . . . . . . . . . . . . . . ",
". . . . . . . . . . . . . . . . . . . . . . . . . . . . . . . . . . . . . . . . . . . . . . . . . . . . . . . . . . . . . . . . ",
". . . . . . . . . . . . . . . . . . . . . . . . . . . . . . . . . . . . . . . . . . . . . . . . . . . . . . . . . . . . . . . . ",
". . . . . . . . . . . . . . . . . . . . . . . . . . . . . . . . . . . . . . . . . . . . . . . . . . . . . . . . . . . . . . . . ",
". . . . . . . . . . . . . . . . . . . . . . . . . . . . . . . . . . . . . . . . . . . . . . . . . . . . . . . . . . . . . . . . ",
". . . . . . . . . . . . . . . . . . . . . . . . . . . . . . . . . . . . . . . . . . . . . . . . . . . . . . . . . . . . . . . . ",
". . . . . . . . . . . . . . . . . . . . . . . . . . . . . . . . . . . . . . . . . . . . . . . . . . . . . . . . . . . . . . . . ",
". . . . . . . . . . . . . . . . . . . . . . . . . . . . . . . . . . . . . . . . . . . . . . . . . . . . . . . . . . . . . . . . ",
". . . . . . . . . . . . . . . . . . . . . . . . . . . . . . . . . . . . . . . . . . . . . . . . . . . . . . . . . . . . . . . . ",
". . . . . . . . . . . . . . . . . . . . . . . . . . . . . . . . . . . . . . . . . . . . . . . . . . . . . . . . . . . . . . . . ",
". . . . . . . . . . . . . . . . . . . . . . . . . . . . . . . . . . . . . . . . . . . . . . . . . . . . . . . . . . . . . . . . ",
". . . . . . . . . . . . . . . . . . . . . . . . . . . . . . . . . . . . . . . . . . . . . . . . . . . . . . . . . . . . . . . . ",
". . . . . . . . . . . . . . . . . . . . . . . . . . . . . . . . . . . . . . . . . . . . . . . . . . . . . . . . . . . . . . . . ",
". . . . . . . . . . . .           + @ # $ % & * = - ; . . . . . . . . . . > , ' ) ! ~ & { ] ^ . . . . . . . . . . . . . . . . . ",
". . . . . . . . . . . .     ^ / ( ( ( ( ( ( ( ( ( ( ( _ . . . . . . . : < [ ( ( ( ( ( ( ( ( } | . . . . . . . . . . . . . . . . ",
". . . . . . . . . . . . . 1 2 ( ( ( ( ( ( ( ( ( ( ( ( _ . . . . . . 3 & ( ( ( ( ( ( ( ( ( ( ( ( = 4 . . . . . . . . . . . . . . ",
". . . . . . . . . . . . . 5 ( ( ( 6 7 8 9 ^ 0 a b c d e . . . . . e d ( ( ( f ] ; 9 e g , h ( ( ( i . . . . . . . . . . . . . . ",
". . . . . . . . . . . . . j ( ( k . . . . . . . . . . . . . . . . l ( ( m n . . . . . . . _ o ( ( m p . . . . . . . . . . . . . ",
". . . . . . . . . . . . . q ( ( : . . . . . . . . . . . . . . . r ( ( ( s . . . . . . . . . 9 t ( ( u . . . . . . . . . . . . . ",
". . . . . . . . . . . . . v ( v 9 . . . . . . . . . . . . . . . w ( ( x . . . . . . . . . . . g ( ( ( y . . . . . . . . . . . . ",
". . . . . . . . . . . . . d ( ( z . . . . . . . . . . . . . . . d ( ( ] . . . . . . . . . . . . A ( ( B . . . . . . . . . . . . ",
". . . . . . . . . . . . . C ( ( # D : . . . . . . . . . . . . E ( ( ( E . . . . . . . . . . . . B ( ( F . . . . . . . . . . . . ",
". . . . . . . . . . . . . G H ( ( ( [ I J K y 1 . . . . . . . y ( ( L . . . . . . . . . . . . . M ( ( N . . . . . . . . . . . . ",
". . . . . . . . . . . . . . 0 O ( ( ( ( ( ( ( ~ P Q . . . . . R ( ( S . . . . . . . . . . . . . a ( ( T . . . . . . . . . . . . ",
". . . . . . . . . . . . . . . . U V W ( ( ( ( ( ( $ n . . . . R ( ( S . . . . . . . . . . . . . a ( ( T . . . . . . . . . . . . ",
". . . . . . . . . . . . . . . . . . . ; 7 X O m ( ( ( Y . . . y ( ( L . . . . . . . . . . . . . M ( ( N . . . . . . . . . . . . ",
". . . . . . . . . . . . . . . . . . . . . . . > Z ( ( ` 1 . . E ( ( ( E . . . . . . . . . . . . B ( ( F . . . . . . . . . . . . ",
". . . . . . . . . . . . . . . . . . . . . . . . G  .( ( a . . . ..( ( Y . . . . . . . . . . . . A ( ( B . . . . . . . . . . . . ",
". . . . . . . . . . . . . . . . . . . . . . . . . +.( ( @.. . . P ( ( #.. . . . . . . . . . . g ( ( ( y . . . . . . . . . . . . ",
". . . . . . . . . . . . . . . . . . . . . . . . . S ( ( $.. . . %.( ( ( &.. . . . . . . . . 9 #.( ( f . . . . . . . . . . . . . ",
". . . . . . . . . . . . . . . . . . . . . . . . ] ( ( ( > . . . . { ( ( [ *.. . . . . . . e =.( ( m R . . . . . . . . . . . . . ",
". . . . . . . . . . . . . -.;.>.R %.8 ,.1 E M '.m ( ( #.. . . . . _ ..( ( ( u Y ; 9 ).g >.!.( ( ( ~.. . . . . . . . . . . . . . ",
". . . . . . . . . . . . . ~ ( ( ( ( ( ( ( ( ( ( ( (  .y . . . . . . Q {.( ( ( ( ( ( ( ( ( ( ( ( w 1 . . . . . . . . . . . . . . ",
". . . . . . . . . . . . . ~ ( ( ( ( ( ( ( ( ( ( ( -.a . . . . . . . . ].V [ ( ( ( ( ( ( ( ( ^./.. . . . . . . . . . . . . . . . ",
". . . . . . . . . . . .     z (._.N ) :.<.h x < $.1 . . . . . . . . . . . > [.O H ! }.{.|.1.^ . . . . . . . . . . . . . . . . . ",
". . . . . . . . . . . . . . . . . . . . . . . . . . . . . . . . . . . . . . . . . . . . . . . . . . . . . . . . . . . . . . . . ",
". . . . . . . . . . . . . . . . . . . . . . . . . . . . . . . . . . . . . . . . . . . . . . . . . . . . . . . . . . . . . . . . ",
". . . . . . . . . . . . . . . . . . . . . . . . . . . . . . . . . . . . . . . . . . . . . . . . . . . . . . . . . . . . . . . . ",
". . . . . . . . . . . . . . . . . . . . . . . . . . . . . . . . . . . . . . . . . . . . . . . . . . . . . . . . . . . . . . . . ",
". . . . . . . . . . . . . . . . . . . . . . . . . . . . . . . . . . . . . . . . . . . . . . . . . . . . . . . . . . . . . . . . ",
". . . . . . . . . . . . . . . . . . . . . . . . . . . . . . . . . . . . . . . . . . . . . . . . . . . . . . . . . . . . . . . . ",
". . . . . . . . . . . . . . . . . . . . . . . . . . . . . . . . . . . . . . . . . . . . . . . . . . . . . . . . . . . . . . . . ",
". . . . . . . . . . . . . . . . . . . . . . . . . . . . . . . . . . . . . . . . . . . . . . . . . . . . . . . . . . . . . . . . ",
". . . . . . . . . . . . . . . . . . . . . . . . . . . . . . . . . . . . . . . . . . . . . . . . . . . . . . . . . . . . . . . . ",
". . . . . . . . . . . . . . . . . . . . . . . . . . . . . . . . . . . . . . . . . . . . . . . . . . . . . . . . . . . . . . . . ",
". . . . . . . . . . . . . . . . . . . . . . . . . . . . . . . . . . . . . . . . . . . . . . . . . . . . . . . . . . . . . . . . ",
". . . . . . . . . . . . . . . . . . . . . . . . . . . . . . . . . . . . . . . . . . . . . . . . . . . . . . . . . . . . . . . . ",
". . . . . . . . . . . . . . . . . . . . . . . . . . . . . . . . . . . . . . . . . . . . . . . . . . . . . . . . . . . . . . . . ",
". . . . . . . . . . . . . . . . . . . . . . . . . . . . . . . . . . . . . . . . . . . . . . . . . . . . . . . . . . . . . . . . ",
". . . . . . . . . . . . . . . . . . . . . . . . . . . . . . . . . . . . . . . . . . . . . . . . . . . . . . . . . . . . . . . . ",
". . . . . . . . . . . . . . . . . . . . . . . . . . . . . . . . . . . . . . . . . . . . . . . . . . . . . . . . . . . . . . . . ",
". . . . . . . . . . . . . . . . . . . . . . . . . . . . . . . . . . . . . . . . . . . . . . . . . . . . . . . . . . . . . . . . ",
". . . . . . . . . . . . . . . . . . . . . . . . . . . . . . . . . . . . . . . . . . . . . . . . . . . . . . . . . . . . . . . . ",
". . . . . . . . . . . . . . . . . . . . . . . . . . . . . . . . . . . . . . . . . . . . . . . . . . . . . . . . . . . . . . . . "};
